<mxfile host="app.diagrams.net" modified="2023-03-28T11:33:07.599Z" agent="Mozilla/5.0 (Windows NT 10.0; Win64; x64) AppleWebKit/537.36 (KHTML, like Gecko) Chrome/111.0.0.0 Safari/537.36 Edg/111.0.1661.54" etag="Rpqg9LM4fA5P5HKy0CPP" version="21.1.1" type="device">
  <diagram name="Page-1" id="eLtwQg42GDJ6FXUyKhLl">
    <mxGraphModel dx="1805" dy="1067" grid="1" gridSize="10" guides="1" tooltips="1" connect="1" arrows="1" fold="1" page="1" pageScale="1" pageWidth="850" pageHeight="1100" math="0" shadow="0">
      <root>
        <mxCell id="0" />
        <mxCell id="1" parent="0" />
        <mxCell id="whr0zmOdfDrAU00tTXKF-2" style="edgeStyle=orthogonalEdgeStyle;rounded=0;orthogonalLoop=1;jettySize=auto;html=1;" edge="1" parent="1" source="whr0zmOdfDrAU00tTXKF-1">
          <mxGeometry relative="1" as="geometry">
            <mxPoint x="332" y="210" as="targetPoint" />
          </mxGeometry>
        </mxCell>
        <mxCell id="whr0zmOdfDrAU00tTXKF-1" value="" style="shape=image;html=1;verticalAlign=top;verticalLabelPosition=bottom;labelBackgroundColor=#ffffff;imageAspect=0;aspect=fixed;image=https://cdn4.iconfinder.com/data/icons/essential-app-2/16/record-round-circle-dot-128.png" vertex="1" parent="1">
          <mxGeometry x="297" y="90" width="70" height="70" as="geometry" />
        </mxCell>
        <mxCell id="whr0zmOdfDrAU00tTXKF-4" style="edgeStyle=orthogonalEdgeStyle;rounded=0;orthogonalLoop=1;jettySize=auto;html=1;" edge="1" parent="1" source="whr0zmOdfDrAU00tTXKF-3">
          <mxGeometry relative="1" as="geometry">
            <mxPoint x="332" y="330" as="targetPoint" />
          </mxGeometry>
        </mxCell>
        <mxCell id="whr0zmOdfDrAU00tTXKF-3" value="Initialize System" style="rounded=0;whiteSpace=wrap;html=1;" vertex="1" parent="1">
          <mxGeometry x="272" y="210" width="120" height="60" as="geometry" />
        </mxCell>
        <mxCell id="whr0zmOdfDrAU00tTXKF-7" style="edgeStyle=orthogonalEdgeStyle;rounded=0;orthogonalLoop=1;jettySize=auto;html=1;entryX=0.5;entryY=0;entryDx=0;entryDy=0;" edge="1" parent="1" source="whr0zmOdfDrAU00tTXKF-6" target="whr0zmOdfDrAU00tTXKF-8">
          <mxGeometry relative="1" as="geometry">
            <mxPoint x="332" y="470" as="targetPoint" />
          </mxGeometry>
        </mxCell>
        <mxCell id="whr0zmOdfDrAU00tTXKF-6" value="Check Sensor data quality" style="rhombus;whiteSpace=wrap;html=1;" vertex="1" parent="1">
          <mxGeometry x="267" y="330" width="130" height="120" as="geometry" />
        </mxCell>
        <mxCell id="whr0zmOdfDrAU00tTXKF-10" style="edgeStyle=orthogonalEdgeStyle;rounded=0;orthogonalLoop=1;jettySize=auto;html=1;" edge="1" parent="1" source="whr0zmOdfDrAU00tTXKF-8">
          <mxGeometry relative="1" as="geometry">
            <mxPoint x="332" y="630" as="targetPoint" />
          </mxGeometry>
        </mxCell>
        <mxCell id="whr0zmOdfDrAU00tTXKF-8" value="Collect&amp;nbsp; Sensor Data for ML" style="rounded=0;whiteSpace=wrap;html=1;" vertex="1" parent="1">
          <mxGeometry x="272" y="510" width="120" height="60" as="geometry" />
        </mxCell>
        <mxCell id="whr0zmOdfDrAU00tTXKF-12" style="edgeStyle=orthogonalEdgeStyle;rounded=0;orthogonalLoop=1;jettySize=auto;html=1;" edge="1" parent="1" source="whr0zmOdfDrAU00tTXKF-11">
          <mxGeometry relative="1" as="geometry">
            <mxPoint x="480" y="660" as="targetPoint" />
          </mxGeometry>
        </mxCell>
        <mxCell id="whr0zmOdfDrAU00tTXKF-11" value="Preprocess Sensor Data&amp;nbsp;" style="rounded=0;whiteSpace=wrap;html=1;" vertex="1" parent="1">
          <mxGeometry x="277" y="630" width="120" height="60" as="geometry" />
        </mxCell>
        <mxCell id="whr0zmOdfDrAU00tTXKF-14" style="edgeStyle=orthogonalEdgeStyle;rounded=0;orthogonalLoop=1;jettySize=auto;html=1;" edge="1" parent="1" source="whr0zmOdfDrAU00tTXKF-13">
          <mxGeometry relative="1" as="geometry">
            <mxPoint x="540" y="750" as="targetPoint" />
          </mxGeometry>
        </mxCell>
        <mxCell id="whr0zmOdfDrAU00tTXKF-13" value="Train Fault Detector" style="rounded=0;whiteSpace=wrap;html=1;" vertex="1" parent="1">
          <mxGeometry x="480" y="630" width="120" height="60" as="geometry" />
        </mxCell>
        <mxCell id="whr0zmOdfDrAU00tTXKF-16" style="edgeStyle=orthogonalEdgeStyle;rounded=0;orthogonalLoop=1;jettySize=auto;html=1;" edge="1" parent="1" source="whr0zmOdfDrAU00tTXKF-15">
          <mxGeometry relative="1" as="geometry">
            <mxPoint x="550" y="850" as="targetPoint" />
          </mxGeometry>
        </mxCell>
        <mxCell id="whr0zmOdfDrAU00tTXKF-15" value="Run ML Fault Detector" style="rounded=0;whiteSpace=wrap;html=1;" vertex="1" parent="1">
          <mxGeometry x="490" y="750" width="120" height="60" as="geometry" />
        </mxCell>
        <mxCell id="whr0zmOdfDrAU00tTXKF-18" style="edgeStyle=orthogonalEdgeStyle;rounded=0;orthogonalLoop=1;jettySize=auto;html=1;" edge="1" parent="1" source="whr0zmOdfDrAU00tTXKF-17">
          <mxGeometry relative="1" as="geometry">
            <mxPoint x="700" y="1000" as="targetPoint" />
          </mxGeometry>
        </mxCell>
        <mxCell id="whr0zmOdfDrAU00tTXKF-20" style="edgeStyle=orthogonalEdgeStyle;rounded=0;orthogonalLoop=1;jettySize=auto;html=1;" edge="1" parent="1" source="whr0zmOdfDrAU00tTXKF-17">
          <mxGeometry relative="1" as="geometry">
            <mxPoint x="400" y="1000" as="targetPoint" />
          </mxGeometry>
        </mxCell>
        <mxCell id="whr0zmOdfDrAU00tTXKF-17" value="Is Fault Detected by Sensor Fault Detecting System" style="rhombus;whiteSpace=wrap;html=1;" vertex="1" parent="1">
          <mxGeometry x="480" y="850" width="140" height="140" as="geometry" />
        </mxCell>
        <mxCell id="whr0zmOdfDrAU00tTXKF-22" style="edgeStyle=orthogonalEdgeStyle;rounded=0;orthogonalLoop=1;jettySize=auto;html=1;" edge="1" parent="1" source="whr0zmOdfDrAU00tTXKF-19">
          <mxGeometry relative="1" as="geometry">
            <mxPoint x="850" y="1150" as="targetPoint" />
          </mxGeometry>
        </mxCell>
        <mxCell id="whr0zmOdfDrAU00tTXKF-26" style="edgeStyle=orthogonalEdgeStyle;rounded=0;orthogonalLoop=1;jettySize=auto;html=1;exitX=0;exitY=0.5;exitDx=0;exitDy=0;" edge="1" parent="1" source="whr0zmOdfDrAU00tTXKF-19">
          <mxGeometry relative="1" as="geometry">
            <mxPoint x="530" y="1150" as="targetPoint" />
          </mxGeometry>
        </mxCell>
        <mxCell id="whr0zmOdfDrAU00tTXKF-27" style="edgeStyle=orthogonalEdgeStyle;rounded=0;orthogonalLoop=1;jettySize=auto;html=1;" edge="1" parent="1" source="whr0zmOdfDrAU00tTXKF-19" target="whr0zmOdfDrAU00tTXKF-25">
          <mxGeometry relative="1" as="geometry" />
        </mxCell>
        <mxCell id="whr0zmOdfDrAU00tTXKF-19" value="Continue Monitoring Sensor Data Quality&lt;br&gt;is Good?" style="rounded=0;whiteSpace=wrap;html=1;" vertex="1" parent="1">
          <mxGeometry x="640" y="1000" width="120" height="60" as="geometry" />
        </mxCell>
        <mxCell id="whr0zmOdfDrAU00tTXKF-21" value="Alert Maintance Crew of Detected Fault" style="rounded=0;whiteSpace=wrap;html=1;" vertex="1" parent="1">
          <mxGeometry x="340" y="1000" width="120" height="60" as="geometry" />
        </mxCell>
        <mxCell id="whr0zmOdfDrAU00tTXKF-23" value="Continue Normal Operations" style="rounded=0;whiteSpace=wrap;html=1;" vertex="1" parent="1">
          <mxGeometry x="800" y="1150" width="120" height="60" as="geometry" />
        </mxCell>
        <mxCell id="whr0zmOdfDrAU00tTXKF-25" value="Alert Maintenance Crew to Inspect the system" style="rounded=0;whiteSpace=wrap;html=1;" vertex="1" parent="1">
          <mxGeometry x="640" y="1150" width="120" height="60" as="geometry" />
        </mxCell>
        <mxCell id="whr0zmOdfDrAU00tTXKF-28" value="Repair Fault Detected Sensor&amp;nbsp;" style="rounded=0;whiteSpace=wrap;html=1;" vertex="1" parent="1">
          <mxGeometry x="480" y="1150" width="120" height="60" as="geometry" />
        </mxCell>
      </root>
    </mxGraphModel>
  </diagram>
</mxfile>
